<svg width="63" height="72" viewBox="0 0 63 72" fill="none" xmlns="http://www.w3.org/2000/svg">
<path d="M31.0814 71.8209C30.4144 71.7278 29.9634 71.5087 29.0102 70.8157C25.7439 68.4406 23.0441 66.2382 20.626 63.9761C19.6985 63.1082 17.661 61.0227 16.9452 60.2086C14.0194 56.8801 11.5924 53.4688 8.62046 48.5088C7.96526 47.4155 7.1659 45.7824 6.07489 43.3064C2.53077 35.2663 0.679866 27.1495 0.133804 17.2528C0.0276307 15.3262 -0.00757514 13.8408 0.00131898 11.6584C0.00873074 9.85378 0.0176248 9.63709 0.104157 9.16089C0.267957 8.25943 0.585181 7.40522 0.969481 6.83046C1.44513 6.11911 2.73533 5.09306 3.76872 4.60431C5.22828 3.91382 8.78333 2.84439 11.9869 2.13194C12.8567 1.9385 14.5725 1.58874 15.1545 1.48593C15.325 1.45603 15.6839 1.3918 15.952 1.34381C16.217 1.29596 16.4829 1.25276 16.7495 1.21424C16.92 1.19116 17.1992 1.14299 17.3697 1.10718C17.5401 1.07138 17.8592 1.01859 18.0784 0.990532C18.2978 0.962292 18.7562 0.900645 19.0975 0.853578C19.3705 0.815394 19.6437 0.778848 19.9171 0.743941C20.9866 0.616216 21.3331 0.576348 22.0437 0.49938C25.6488 0.109375 30.4387 -0.0748297 33.8946 0.0440361C35.412 0.096086 38.8545 0.294134 39.1269 0.344892C39.2025 0.359104 39.5414 0.386236 39.88 0.405248C40.2185 0.424259 40.7747 0.474094 41.1157 0.515623C41.457 0.557152 42.0051 0.621568 42.3342 0.658668C43.8771 0.833275 45.2168 1.00696 45.7895 1.10663C45.9967 1.14262 46.5448 1.23288 47.0078 1.30689C51.8835 2.0869 55.9212 3.22351 58.925 4.66171C60.2245 5.28373 60.7435 5.63368 61.3752 6.31144C62.1115 7.10215 62.55 7.93661 62.7801 8.98591C62.9756 9.87519 62.8876 15.4154 62.6226 18.9341C62.2611 23.7362 61.6383 27.7778 60.6084 32.0036C59.4959 36.5696 58.0036 40.7524 55.8334 45.3874C55.0996 46.9545 54.901 47.3399 54.2923 48.3742C53.9651 48.9298 53.6875 49.4053 53.6753 49.4305C53.6631 49.4558 53.5934 49.5671 53.5202 49.6784C53.447 49.7897 53.3633 49.9202 53.3343 49.9693C53.3051 50.0184 53.1954 50.1998 53.0905 50.373C52.986 50.5459 52.8922 50.7074 52.8824 50.7322C52.8726 50.7569 52.8522 50.7872 52.8372 50.7995C52.822 50.8117 52.7221 50.9634 52.6152 51.1364C52.4965 51.3277 52.375 51.5172 52.2506 51.7049C52.1572 51.8446 52.0805 51.9793 52.0805 52.0042C52.0805 52.0292 52.0656 52.0559 52.0471 52.0644C52.0019 52.0847 51.7703 52.4492 51.7703 52.5C51.7703 52.5227 51.7404 52.553 51.7039 52.567C51.6674 52.5812 51.6376 52.6135 51.6376 52.6386C51.6376 52.6639 51.5279 52.8448 51.3941 53.041C51.2598 53.237 51.1503 53.4172 51.1503 53.4411C51.1503 53.465 51.1206 53.4962 51.0841 53.5104C51.0476 53.5246 51.0174 53.5672 51.0174 53.605C51.0174 53.6429 51.0008 53.6737 50.9809 53.6737C50.9605 53.6737 50.9157 53.7295 50.8812 53.7974C50.8466 53.8651 50.803 53.941 50.7847 53.9657C50.6355 54.1641 50.4549 54.4179 50.1319 54.8845C49.8151 55.3413 49.4789 55.8074 49.0285 56.4133C45.0408 61.7797 40.87 65.8096 34.3193 70.627C33.3632 71.3303 32.9147 71.5809 32.357 71.7247C31.9659 71.8253 31.412 71.8672 31.0814 71.8207V71.8209ZM32.2151 71.4135C32.7671 71.2714 33.2255 71.0191 34.1006 70.3756C42.4681 64.2247 47.1435 59.2226 52.4725 50.7198C53.9049 48.4342 54.5993 47.2239 55.1691 46.0202C56.7199 42.743 57.8366 40.0145 58.7544 37.2582C60.985 30.56 62.189 23.4774 62.4918 15.2736C62.5633 13.3478 62.5498 9.61642 62.4703 9.15314C62.2527 7.8901 61.488 6.68889 60.3616 5.84243C59.9525 5.53475 58.5005 4.79036 57.5726 4.41254C54.8228 3.29273 51.6784 2.45199 47.5621 1.73566C45.1449 1.31538 41.9884 0.928146 38.9451 0.678786C38.6283 0.652946 38.2596 0.621568 38.1254 0.609571C37.7115 0.571918 35.7653 0.457298 34.6478 0.404694C32.5151 0.304286 28.6487 0.356151 25.9423 0.521714C18.8604 0.95454 11.0901 2.36801 5.76248 4.19252C4.29588 4.69457 3.77428 4.92897 3.01717 5.42659C1.78737 6.23447 1.2263 6.84947 0.821801 7.83306C0.34819 8.98425 0.263695 9.95677 0.335219 13.4325C0.425828 17.8414 0.68524 21.2787 1.19962 24.8851C2.22114 32.0483 4.01108 38.0933 7.07085 44.7136C8.26099 47.2887 8.60323 47.9104 10.4964 50.9337C10.9644 51.6812 12.2376 53.5982 12.7642 54.3478C16.3311 59.4258 19.7839 63.0942 24.9278 67.2704C26.2636 68.3549 29.4412 70.7581 29.978 71.0896C30.1726 71.2099 30.6855 71.4089 30.9262 71.4578C31.269 71.5276 31.8504 71.5074 32.2151 71.4135ZM31.0236 69.601C30.7531 69.5238 30.1374 69.0958 28.8785 68.1094C21.1458 62.0523 16.7791 57.3104 12.4212 50.2379C11.8379 49.291 11.0599 47.9661 10.5357 47.0268C10.0126 46.0892 8.34586 42.5727 7.51314 40.6492C4.56104 33.8311 2.93897 26.7562 2.44164 18.5299C2.26691 15.6376 2.2406 11.6765 2.39069 10.8497C2.5556 9.94145 2.85374 9.14705 3.26027 8.53149C3.70368 7.8602 4.52268 7.19333 5.30203 6.86903C6.90278 6.20272 10.5251 5.16265 13.6262 4.4788C19.0205 3.28959 24.0553 2.67477 29.7079 2.51493C31.263 2.47119 33.965 2.48595 34.5148 2.54132C34.6122 2.55111 34.991 2.57086 35.3564 2.58562C38.8547 2.7259 43.5506 3.22923 46.9195 3.82504C51.0775 4.56038 54.244 5.49414 56.9539 6.78376C57.3801 6.98679 57.8781 7.22286 58.0601 7.3085C59.5591 8.01302 60.2443 9.10072 60.4706 11.1342C60.5818 12.1349 60.316 17.0867 59.9638 20.5733C58.9654 30.4563 56.9602 37.6748 53.1852 44.9769C51.6611 47.925 49.2253 51.9537 47.3834 54.572C44.2247 59.0625 41.1655 62.2003 35.0069 67.2663C34.8824 67.3687 34.3619 67.7988 33.8501 68.2222C33.3383 68.6456 32.7858 69.0834 32.6216 69.1949C32.0442 69.589 31.4817 69.7318 31.0236 69.601ZM19.5406 53.5464C20.0842 53.2959 20.2643 52.9133 20.3374 51.8547C20.3863 51.1506 20.5226 50.8835 20.871 50.8097L21.047 50.7726L21.0248 50.3481C20.9914 49.714 20.9979 48.7725 21.0363 48.6339C21.0548 48.5667 21.2753 48.2533 21.5266 47.9377C22.1221 47.1891 22.4771 46.6708 22.5772 46.4039C22.6215 46.2854 22.7006 45.8972 22.7527 45.541C22.8592 44.8134 22.8131 44.9177 23.613 43.5956C23.8505 43.2032 24.2067 42.5489 24.4042 42.1417C24.6195 41.6982 24.8307 41.3283 24.9312 41.2192C25.0181 41.1249 25.1037 41.0295 25.188 40.9329C25.2371 40.8755 25.2966 40.8288 25.3203 40.8288C25.4109 40.8288 25.6749 41.1112 25.7731 41.3137C25.8717 41.5165 25.8758 41.5679 25.8758 42.5731C25.8758 43.6203 25.8758 43.6212 25.9803 43.7073C26.0377 43.7545 26.1304 43.7933 26.1863 43.7933C26.287 43.7933 26.2868 43.7912 26.1628 43.6574C25.9816 43.461 25.9397 43.191 25.9723 42.4293C25.9979 41.8312 25.992 41.7526 25.9019 41.4824C25.8478 41.3203 25.81 41.1223 25.8176 41.042C25.8306 40.9039 25.8417 40.8956 26.0307 40.8822C26.2556 40.8659 26.3576 40.7906 26.478 40.5512C26.5627 40.3831 26.5851 40.2471 26.5706 39.9898C26.5636 39.8668 26.5303 39.829 26.3335 39.7203C26.0309 39.5534 25.9473 39.4268 25.8925 39.0527C25.8291 38.6204 25.8808 37.2835 25.9729 36.977C26.0539 36.7069 26.0907 36.7023 26.4078 36.9221C26.717 37.1368 27.6574 37.5417 28.1216 37.6604C28.6904 37.8059 29.464 37.8229 29.7099 37.6955C29.923 37.5848 30.7164 36.9701 31.049 36.6578C31.201 36.5151 31.445 36.3103 31.5912 36.2028C31.7374 36.0952 31.9353 35.9402 32.0311 35.8582C32.1269 35.7763 32.2508 35.7087 32.3062 35.7087C32.463 35.7087 32.8849 35.883 33.0317 36.0083C33.2985 36.2361 33.1647 36.466 32.5162 36.8939C32.0044 37.2311 31.457 37.8321 31.2043 38.3339C31.0883 38.565 30.55 40.1808 30.55 40.2989C30.55 40.4883 30.6953 40.882 30.8409 41.0869C31.374 41.837 31.6312 42.258 31.6859 42.4708C31.719 42.5991 31.7765 42.7776 31.8135 42.8673C31.9571 43.2159 31.785 43.4094 31.2024 43.5531C30.9779 43.6085 30.6805 43.6676 30.5419 43.6842L30.2897 43.7145L30.361 43.8248C30.4222 43.9193 30.4379 43.9251 30.4715 43.8643C30.5035 43.8062 30.6017 43.7935 31.0162 43.7935C31.4237 43.7935 31.5671 43.775 31.7555 43.7001L31.989 43.6067L32.1006 43.7469C32.2251 43.9042 32.9431 44.6526 32.9431 44.6253C32.9431 44.5122 32.6001 43.7228 32.3283 43.2095C32.1384 42.8514 31.8932 42.3663 31.7835 42.1315C31.6714 41.8914 31.4257 41.4909 31.2217 41.2151C31.0223 40.9457 30.8448 40.673 30.827 40.609C30.765 40.3825 30.7978 39.9994 30.9062 39.6898C31.0772 39.2011 31.2136 39.2337 31.2149 39.764C31.2158 40.149 31.2653 40.2657 31.6909 40.8855C32.1793 41.5968 32.2138 41.6594 32.4574 42.2698C32.6637 42.7873 32.9173 43.2626 33.2175 43.6953C33.3656 43.9086 33.6522 44.6837 33.6522 44.8703C33.6522 44.9454 33.5979 45.0419 33.5031 45.1351L33.3535 45.282L33.2587 45.1597C33.2062 45.0925 33.1497 45.0513 33.133 45.0683C33.116 45.0855 33.0941 45.2296 33.0841 45.3887C33.0661 45.6741 33.0682 45.6804 33.226 45.8221C33.3769 45.9574 33.3863 45.9818 33.3863 46.2383C33.3863 46.5626 33.4823 46.7832 33.6817 46.9183C33.7628 46.9733 34.0282 47.0549 34.3143 47.1127L34.8068 47.2121L34.9813 47.0719C35.2865 46.8269 35.6438 46.3926 35.6929 46.2068C35.7503 45.9917 35.7144 45.8059 35.5943 45.6955C35.5345 45.6367 35.4838 45.5693 35.444 45.4956C35.3543 45.3201 35.4318 45.2756 35.8276 45.2756C36.15 45.2756 36.1754 45.2682 36.2771 45.1458C36.3948 45.0037 36.6951 44.3368 36.8713 43.8256C36.9614 43.5642 36.9825 43.4195 36.9807 43.0779C36.9784 42.7318 36.9996 42.5917 37.0946 42.3143C37.2521 41.8547 37.2534 41.5121 37.0987 41.2109C36.9682 40.9573 36.8745 40.8632 36.5426 40.6529C36.18 40.4231 36.2258 40.279 36.7231 40.0881C37.0075 39.9789 37.1517 39.858 37.1517 39.7286C37.1517 39.6232 37.1495 39.6226 36.7598 39.6481C36.3697 39.6738 36.3673 39.6734 36.2836 39.5499C36.0388 39.1896 35.8987 39.1378 35.6465 39.3135C35.3729 39.5041 34.7595 40.6308 34.7595 40.942C34.7595 41.1229 34.96 41.3063 35.3251 41.4584C35.5135 41.537 35.7136 41.6308 35.7694 41.6668C35.9523 41.7847 36.0436 41.9946 36.0436 42.2971C36.044 42.4499 36.0647 42.6303 36.0899 42.6976C36.1151 42.765 36.1372 42.9503 36.1381 43.1092C36.14 43.3442 36.115 43.4507 36.0036 43.6799C35.825 44.0478 35.268 44.7756 35.122 44.8317C34.9637 44.8926 34.7994 44.7625 34.7199 44.5127C34.6628 44.3337 34.6656 44.3023 34.7586 44.0901C34.968 43.6105 34.9924 43.4321 34.9424 42.7394C34.917 42.3881 34.8718 42.0459 34.8418 41.9793C34.7503 41.7753 34.605 41.8375 34.2974 42.2131C34.0084 42.5657 33.8206 42.7148 33.6643 42.7152C33.5127 42.7152 33.4597 42.5631 33.4864 42.2024C33.5136 41.8399 33.5925 41.5957 33.9092 40.8938C34.1481 40.3646 34.5255 39.3653 34.6541 38.9207C34.753 38.5802 34.7644 37.7261 34.6745 37.3716C34.6267 37.182 34.559 37.0679 34.3817 36.8775C33.9822 36.4489 33.4586 35.706 33.178 35.1702C32.8571 34.5572 32.6407 33.913 32.7561 33.913C32.8164 33.913 33.3081 34.5502 33.5095 34.8892C33.7564 35.3045 33.8848 35.4108 34.1043 35.3813C34.2652 35.3595 34.2702 35.3632 34.2959 35.5231C34.3817 36.0543 34.6326 36.5768 35.0249 37.0403C35.2059 37.254 35.9567 37.8647 36.1743 37.9749C36.4274 38.1032 36.8421 38.2407 37.3286 38.3577C37.6255 38.4292 37.858 38.4482 38.4265 38.4487C39.1831 38.4487 39.3552 38.4155 39.5346 38.2335C39.5827 38.1848 39.7389 38.1025 39.8818 38.0504C40.0245 37.9986 40.1894 37.9305 40.2481 37.8994C40.403 37.8171 40.5216 37.6346 40.4922 37.524C40.4688 37.4364 40.4268 37.4279 39.9057 37.4022C39.2344 37.369 38.6383 37.2285 38.1797 36.9943C37.9785 36.8934 37.773 36.8014 37.5638 36.7184C37.0435 36.5199 36.6482 36.1993 36.5567 35.9022C36.5111 35.7532 36.6004 35.6275 36.7759 35.5939C36.8611 35.5779 36.9419 35.5467 36.9553 35.5247C36.9686 35.5029 37.0131 35.4847 37.0544 35.4841C37.2434 35.4823 37.2549 35.4274 37.1563 35.002C37.0385 34.4926 37.0374 34.4069 37.1495 34.4069C37.3309 34.4069 37.4608 34.5195 37.7116 34.894C37.8543 35.1068 38.0837 35.3977 38.2212 35.54C38.4441 35.7713 38.4908 35.7994 38.6503 35.7994C38.7491 35.7994 38.8412 35.7798 38.856 35.756C38.8708 35.7322 38.8417 35.6318 38.7921 35.5332C38.7369 35.4234 38.702 35.2667 38.702 35.129C38.702 34.9417 38.7248 34.878 38.8392 34.7456C38.9668 34.5983 38.9955 34.5869 39.2314 34.5869C39.5307 34.5869 39.7262 34.6967 39.8944 34.959C39.9919 35.1111 40.0193 35.1259 40.202 35.1259C40.3469 35.1259 40.4497 35.0926 40.5722 35.0068C40.7158 34.9057 40.7579 34.8953 40.8498 34.9376C40.9091 34.9651 41.0064 35.0642 41.0653 35.1576C41.1356 35.2652 41.2169 35.3654 41.3076 35.4566C41.4331 35.5766 41.4596 35.5838 41.6808 35.5557C41.8131 35.5389 41.9706 35.5456 42.0355 35.5705C42.2363 35.6478 42.2597 35.7551 42.175 36.2025C42.1039 36.5779 42.1037 36.6144 42.1737 36.8003C42.2145 36.9092 42.3084 37.0661 42.3818 37.1497C42.5319 37.3204 42.5343 37.3286 42.6019 37.8935C42.6664 38.4318 42.6125 38.8125 42.3888 39.4024C42.2925 39.6562 42.1417 40.0566 42.0533 40.2917C41.9647 40.5271 41.8357 40.7882 41.7664 40.8726L41.6404 41.0256L41.8215 41.1651C42.0555 41.3454 42.2328 41.6496 42.4839 42.3015C42.8426 43.2322 42.8749 43.3477 42.881 43.7038C42.8852 43.9886 42.8574 44.129 42.6992 44.6113C42.4487 45.3753 42.4416 45.6695 42.6671 45.9687C42.7524 46.082 42.8222 46.2084 42.8222 46.2498C42.8222 46.2911 42.7127 46.5082 42.5789 46.7326C42.0258 47.6592 42.0277 48.0807 42.5877 48.5996C42.8804 48.8707 43.1389 49.0136 43.302 48.9946C43.4124 48.9817 43.4215 48.9639 43.4341 48.7338C43.4496 48.4567 43.5738 48.2714 43.7287 48.2939C43.8061 48.3054 43.8236 48.3515 43.849 48.614C43.886 48.9938 43.906 49.0481 44.0083 49.0481C44.1917 49.0481 44.8086 48.5605 44.9329 48.3172L44.9996 48.1856L44.808 48.3201C44.7028 48.394 44.5681 48.5073 44.509 48.5715C44.3804 48.7118 44.2473 48.7205 44.0939 48.5983C43.9381 48.4739 43.9118 48.3 43.9979 47.9637C44.0987 47.5711 44.0669 47.2668 43.9107 47.1306C43.8087 47.042 43.7426 47.0268 43.4509 47.0263C43.2634 47.0263 43.0815 47.0071 43.0461 46.9844C42.9269 46.9081 43.0633 46.7263 43.3496 46.58C43.7646 46.3675 43.7869 46.2171 43.43 46.0323C43.1934 45.91 43.1354 45.8315 43.1335 45.63C43.1317 45.3981 43.2914 45.1805 43.5291 45.0916C43.8132 44.9851 43.9297 44.8276 43.9297 44.5497C43.9297 44.2414 43.8245 44.0402 43.5569 43.8363C43.1207 43.504 43.132 43.5232 43.132 43.1211C43.132 42.83 43.148 42.7442 43.2139 42.6773C43.2747 42.6155 43.3021 42.5005 43.3205 42.2286C43.3364 41.9929 43.3779 41.7941 43.438 41.6686C43.5847 41.3617 43.5695 41.2827 43.2829 40.8513C43.0994 40.576 43.0435 40.2961 43.0435 39.6579C43.0435 39.3912 43.0249 39.1241 43.0027 39.0645C42.9453 38.9113 42.997 38.4015 43.0729 38.372C43.2017 38.3219 43.4005 38.4613 43.5421 38.7012C43.6978 38.9652 43.7304 38.9873 43.7652 38.8526C43.8021 38.7086 44.0178 38.7411 44.5284 38.9663C45.685 39.4768 46.9814 39.5809 47.6807 39.2192C48.079 39.0132 48.7974 38.3821 48.9814 38.0763C49.1534 37.7906 49.1423 37.7852 48.4265 37.8099C47.7016 37.835 47.2663 37.7811 46.787 37.6073C46.3804 37.4596 45.9309 37.1547 45.6776 36.8542C45.5657 36.7211 45.2681 36.4393 45.0165 36.2276C44.765 36.0159 44.5477 35.8123 44.5338 35.7757C44.5256 35.7567 44.5123 35.7404 44.4952 35.7285C44.4782 35.7167 44.4582 35.7098 44.4374 35.7087C44.3018 35.7087 43.7024 35.428 43.3742 35.2108C43.1926 35.0906 42.9616 34.9498 42.8613 34.8979C42.5423 34.7327 41.329 34.4832 40.5748 34.4272L40.1662 34.397L40.1364 34.2333C40.0819 33.9341 39.9924 33.7345 39.7226 33.312C39.4997 32.963 39.4551 32.8608 39.454 32.6956C39.453 32.4586 39.3569 32.2323 39.037 31.7164C38.8781 31.4589 38.7654 31.2105 38.7009 30.9726C38.6476 30.7762 38.5271 30.4386 38.4334 30.2228C38.2197 29.7304 38.1452 29.4602 38.0824 28.9496C38.0129 28.3837 37.9351 28.0663 37.7341 27.5292C37.6381 27.273 37.5154 26.8411 37.4615 26.5694C37.3218 25.8641 37.2693 25.734 36.9082 25.1971C36.7303 24.9329 36.5706 24.6485 36.5524 24.5653C36.5346 24.4818 36.4659 24.351 36.4001 24.2746C36.3343 24.1981 36.203 24.0062 36.1085 23.8478C36.014 23.6895 35.8909 23.4916 35.8352 23.408C35.7794 23.3242 35.7338 23.2003 35.7338 23.1328C35.7338 22.9416 35.8398 22.8849 36.1728 22.8982C36.8743 22.9257 37.4168 23.4589 38.1261 24.8178C38.6898 25.8975 39.1527 26.4546 39.7289 26.7469C39.9554 26.8617 40.1012 26.906 40.2515 26.906C40.5163 26.906 40.6122 26.8073 40.6406 26.5061C40.6654 26.2464 40.615 26.0073 40.3743 25.2443C40.2357 24.805 40.1912 24.583 40.1698 24.2236C40.136 23.6684 40.1112 23.6343 39.6089 23.4584C39.1768 23.307 39.151 23.2277 39.5051 23.137C39.8557 23.0471 40.2294 23.1429 40.6395 23.4279C40.908 23.6147 40.9595 23.6341 41.1296 23.6149C41.2837 23.5974 41.368 23.5477 41.5748 23.3522C41.8081 23.1317 41.8283 23.0975 41.8116 22.9504C41.7913 22.7695 41.9104 22.4921 42.0703 22.3476C42.2017 22.2289 42.276 22.0434 42.4294 21.4543C42.6332 20.6696 42.5799 20.0151 42.268 19.4732C42.0186 19.0402 40.835 18.0865 40.1473 17.765C39.5192 17.4712 39.4888 17.4688 36.0883 17.4285C32.2953 17.3835 30.6076 17.2997 30.1174 17.1314C29.4095 16.889 28.8998 16.4492 28.9748 16.1457C29.0175 15.9722 29.2554 15.7345 29.4677 15.6522C29.8624 15.4995 30.4198 15.6084 31.503 16.049C32.4962 16.4532 33.098 16.556 34.2472 16.5171C35.2678 16.4824 36.0736 16.3587 36.281 16.2052C36.3568 16.1489 36.3568 16.1435 36.2797 16.0736C36.2352 16.0333 35.9102 15.9255 35.5569 15.834C34.7827 15.6328 34.3606 15.4709 34.3606 15.3748C34.3606 15.3144 34.4373 15.3089 34.9476 15.331C35.5411 15.3567 36.2026 15.4694 36.7162 15.6328C37.034 15.7339 37.7517 15.757 37.9868 15.674C38.1417 15.6191 38.1699 15.5041 38.0567 15.3897C37.773 15.1018 36.2152 14.5375 35.0182 14.2887C34.2637 14.1318 33.6789 14.0936 32.4207 14.1187C30.8724 14.1496 30.2324 14.264 29.492 14.6429C28.8876 14.9523 28.1805 15.6038 27.9578 16.0564C27.6972 16.5869 27.8731 16.9403 28.6235 17.3959C29.1427 17.7111 29.5494 17.8403 30.4177 17.9666C31.9901 18.1951 33.1004 18.249 36.1548 18.246C37.6468 18.2442 38.8358 18.2619 38.9904 18.2877C39.4495 18.3641 39.9891 18.5598 40.2704 18.7514C40.6002 18.9765 41.006 19.4587 41.218 19.8778C41.3569 20.1532 41.3771 20.234 41.3797 20.529C41.3821 20.8191 41.3649 20.8981 41.255 21.0993C41.0838 21.4122 40.7325 21.8051 40.5583 21.8782C40.3508 21.9655 39.8505 21.8764 39.2583 21.6499C38.8468 21.4919 38.6987 21.458 38.2836 21.4273C37.7441 21.3874 37.6833 21.3694 36.881 21.0094C36.0616 20.6418 34.8146 20.2316 34.1896 20.124C33.8912 20.0727 33.6014 20.1307 33.1864 20.3252C32.7673 20.5218 32.5264 20.715 31.6929 21.5237C30.9078 22.2858 30.5513 22.5696 30.1124 22.7825C29.3154 23.1691 27.038 24.4658 26.8264 24.6537C26.5154 24.9292 25.9918 25.5727 25.7713 25.9498C25.3673 26.6401 25.2425 27.1831 25.1945 28.4559C25.1617 29.3227 25.1556 29.3673 25.0175 29.7234C24.8633 30.1209 24.4533 30.8371 23.8994 31.6754C23.3788 32.4636 23.0041 33.0909 22.754 33.5928C22.2611 34.581 22.1766 34.9594 22.134 36.3605L22.1025 37.3935L21.942 37.8673C21.8536 38.1276 21.6692 38.6128 21.5321 38.9452C21.0239 40.1769 21.0337 40.114 20.9866 42.3789L20.952 44.0406L20.7663 44.4123C20.6642 44.6167 20.4934 44.9131 20.3865 45.0709C20.1411 45.4345 20.0718 45.7265 19.9812 46.7801C19.9533 47.1121 19.923 47.4439 19.8904 47.7755C19.8719 47.9403 19.8033 48.0357 19.311 48.5839C18.3725 49.6286 18.0132 50.1727 18.0132 50.5492C18.0132 50.7357 17.9991 50.7606 17.8242 50.8826C17.4809 51.122 16.9972 51.6825 16.8351 52.0288C16.6437 52.4378 16.5985 52.8184 16.7147 53.0456C16.8449 53.3003 16.9315 53.2579 17.2976 52.7612L17.623 52.3195L17.7295 52.4208C17.7881 52.4767 17.8361 52.5476 17.8361 52.5785C17.8361 52.6093 17.7556 52.8029 17.6573 53.0085C17.5583 53.2152 17.4842 53.4325 17.4912 53.4947C17.5079 53.6453 17.6621 53.668 18.5893 53.6575C19.2437 53.6493 19.3421 53.6381 19.5406 53.5464ZM19.1289 51.1105C18.9756 51.0496 18.7472 50.5297 18.7848 50.3266C18.817 50.1528 18.86 50.1402 19.0905 50.238C19.3295 50.3394 19.447 50.3211 19.6705 50.1483C19.8884 49.9796 19.9577 49.9601 20.0411 50.045C20.1194 50.1244 20.1059 50.2641 20.0007 50.4643C19.9474 50.5655 19.8943 50.6668 19.8413 50.7681C19.7172 51.005 19.331 51.1905 19.1289 51.1105ZM20.5575 46.8716C20.4591 46.7719 20.4487 46.7249 20.4487 46.3812C20.4487 46.1721 20.4389 45.9742 20.427 45.9413C20.4152 45.9081 20.4248 45.8513 20.4485 45.814C20.4847 45.7579 20.5139 45.7708 20.6275 45.8928C20.7383 46.0119 20.7973 46.0386 20.9466 46.0386C21.0724 46.0386 21.1612 46.0089 21.2301 45.9432C21.3654 45.8144 21.4688 45.8609 21.4645 46.0484C21.4575 46.3522 21.2662 46.6948 21.01 46.8635C20.7863 47.0104 20.6961 47.0121 20.5575 46.8716ZM34.6561 46.4685C34.5388 46.4366 34.4227 46.39 34.3984 46.3651C34.3217 46.2874 34.2483 45.7394 34.2963 45.6014C34.3897 45.3313 34.7241 45.4561 34.8075 45.7922C34.8557 45.9871 34.8631 45.9934 35.0278 45.9934C35.2239 45.9934 35.29 46.0763 35.29 46.3218C35.29 46.4589 35.2743 46.4794 35.1514 46.5043C34.9687 46.5418 34.9085 46.5373 34.6561 46.4685ZM21.4815 42.7401C21.2961 42.657 21.2307 42.4365 21.2533 41.9697C21.274 41.5396 21.4476 41.1384 21.6828 40.9778L21.8305 40.8768L21.9409 41.0101C22.0076 41.0909 22.0939 41.143 22.1595 41.143C22.322 41.143 22.658 40.9497 22.9074 40.7129C23.0293 40.597 23.242 40.4023 23.3804 40.2799C23.6936 40.003 23.772 39.8172 23.7696 39.357C23.7662 38.7609 23.7249 38.6368 23.444 38.3812C23.1609 38.1235 23.0512 37.8969 23.0504 37.5681C23.0495 37.1827 23.2357 36.9664 23.5681 36.9664C23.751 36.9664 23.8785 37.0895 24.109 37.4893C24.4892 38.1483 25.0438 38.4035 25.4088 38.0873C25.5834 37.936 25.6412 37.9249 25.7396 38.025C25.7965 38.0825 25.8091 38.214 25.8091 38.7407C25.8091 39.0955 25.8274 39.4346 25.8498 39.4942C25.8775 39.568 25.9699 39.6356 26.1396 39.7053C26.442 39.8299 26.5388 39.9809 26.5058 40.2775C26.4791 40.518 26.3433 40.678 26.1126 40.7408C25.8649 40.8085 25.682 40.7426 24.9236 40.3129C24.6944 40.183 24.4385 40.1668 24.2797 40.2722C24.22 40.3118 24.0697 40.4831 23.9456 40.6527C23.7696 40.8934 23.6226 41.0274 23.2796 41.2605C22.7971 41.5882 22.6589 41.7281 22.3776 42.1727C22.1764 42.4911 21.9361 42.7597 21.8514 42.7608C21.823 42.7608 21.7597 42.7709 21.7111 42.7825C21.6626 42.7942 21.5594 42.775 21.4815 42.7401ZM28.6004 33.234C28.4419 33.1596 28.2127 33.0771 28.0908 33.0509C27.8073 32.9898 27.6439 32.9043 27.5588 32.7727C27.498 32.6786 27.4982 32.6398 27.5605 32.3936C27.6407 32.0761 27.5994 31.8277 27.4436 31.6848C27.3648 31.6129 27.2877 31.6005 26.9672 31.6066C26.7472 31.6108 26.5021 31.6442 26.3907 31.6852C26.2842 31.7243 26.1919 31.7565 26.1858 31.7565C26.1649 31.7565 26.2165 31.3299 26.2575 31.1645C26.2864 31.0477 26.3442 30.9705 26.4548 30.9011C26.7194 30.7356 26.7559 30.6396 26.7272 30.1887C26.6926 29.6471 26.7604 29.3799 26.9329 29.3769C26.9542 29.3769 27.0459 29.452 27.1367 29.5447C27.2516 29.6617 27.3329 29.809 27.4034 30.0274C27.576 30.5623 27.6494 30.6785 27.8147 30.6793C28.0797 30.6811 28.0906 30.7068 28.0906 31.3395C28.0906 32.0309 28.1332 32.138 28.5946 32.5998C29.3041 33.31 29.3063 33.5657 28.6004 33.234ZM35.804 29.6252C35.7877 29.5598 35.7877 29.3276 35.804 29.1093L35.8337 28.7125L35.7075 28.629C35.5952 28.5545 35.4829 28.5452 34.6715 28.5439C33.8766 28.5421 33.7389 28.5321 33.5844 28.4585L33.4071 28.3743L33.5399 28.3416C33.6131 28.3236 33.8623 28.3064 34.0938 28.3033C34.58 28.297 34.7701 28.2529 34.9758 28.0991C35.5524 27.668 35.4362 27.1345 34.5783 26.275C34.0437 25.7395 33.95 25.5926 33.9696 25.3204L33.9832 25.1319L34.2046 25.3589C34.3263 25.4841 34.4955 25.7063 34.5804 25.853C34.8235 26.2735 35.6302 27.392 35.9334 27.7287C36.3744 28.2187 36.5391 28.646 36.4676 29.1143C36.4298 29.3622 36.1693 29.6787 35.9715 29.7173C35.8492 29.7411 35.8302 29.7309 35.804 29.6252ZM34.8403 22.5159C34.7638 22.4287 34.6923 22.3372 34.6263 22.2418C34.5702 22.1588 34.4295 21.9814 34.3137 21.8472C34.0612 21.5545 34.0261 21.4504 34.1414 21.3337C34.2598 21.2138 34.7608 21.2119 34.9806 21.3304C35.2039 21.4511 35.3743 21.8088 35.409 22.2297L35.4364 22.5597L35.3021 22.5298C35.2026 22.5076 35.1613 22.518 35.1416 22.5696C35.1012 22.6771 34.9641 22.6525 34.8403 22.5159ZM33.5401 16.1847C33.4914 16.1729 33.3576 16.1223 33.2427 16.0728C32.9902 15.9639 32.929 15.8338 33.0745 15.7146C33.2031 15.609 33.3033 15.6119 33.5279 15.728C33.6285 15.7801 33.8323 15.8329 33.98 15.8454C34.1675 15.8609 34.2994 15.9023 34.4153 15.9811C34.5974 16.1055 34.6172 16.1485 34.5114 16.1897C34.4303 16.221 33.672 16.2173 33.5401 16.1847ZM24.4186 51.2813C24.7234 51.1225 25.0042 50.7938 25.2543 50.3025C25.3783 50.0594 25.5497 49.8056 25.6785 49.6744C25.939 49.4089 25.9927 49.308 26.1146 48.8549C26.2295 48.4283 26.4246 48.0278 26.7802 47.4888C27.1827 46.8788 27.3624 46.7057 27.8916 46.4177C28.7262 45.9637 28.7758 45.9028 28.8286 45.2706C28.849 45.0238 28.8953 44.7645 28.9313 44.694C29.0141 44.5316 29.4308 44.1482 29.7701 43.9221L30.0318 43.7481H28.8042C27.8518 43.7481 27.5086 43.7637 27.2731 43.8182C27.1061 43.8566 26.8729 43.8819 26.7548 43.8743L26.5403 43.8605L26.2642 44.5563C26.1126 44.9395 25.9879 45.2918 25.9875 45.3396C25.9857 45.4888 25.846 46.0085 25.7633 46.1735C25.6488 46.4015 24.8969 47.1953 24.6979 47.2983C24.6045 47.3467 24.47 47.3862 24.3994 47.3862C24.2437 47.3862 24.0682 47.5176 23.9962 47.688C23.9669 47.757 23.8031 47.9132 23.6293 48.0376C23.2316 48.3225 22.7412 48.781 22.6176 48.9837C22.4705 49.2255 22.3989 49.5688 22.3984 50.0393C22.3978 50.5182 22.4918 50.9344 22.6003 50.9344C22.637 50.9344 22.8088 50.8335 22.9824 50.71C23.4894 50.349 23.5926 50.4258 23.2839 50.9344C23.1864 51.095 23.1066 51.2497 23.1066 51.2781C23.1066 51.3656 23.4205 51.4249 23.8153 51.4119C24.1192 51.4016 24.2359 51.3763 24.4186 51.2813ZM24.8522 48.832C24.5676 48.6212 24.3032 48.3502 24.3032 48.2694C24.3032 48.2242 24.4079 48.142 24.5735 48.0575L24.8437 47.9191L25.0233 48.0394C25.2675 48.2035 25.4691 48.2231 25.7578 48.1118C26.0802 47.9874 26.1159 48.0088 26.0672 48.2978C26.0455 48.4263 26.0036 48.58 25.974 48.6398C25.904 48.7808 25.6182 48.9067 25.2929 48.9403C25.0546 48.9647 25.0197 48.9562 24.8524 48.8321L24.8522 48.832ZM29.5087 48.913C29.6084 48.8872 29.5604 48.8774 29.3171 48.8733C29.0336 48.8687 28.9945 48.858 29.0069 48.7893C29.0147 48.7463 29.1247 48.6601 29.2509 48.5985C29.3773 48.5368 29.497 48.4693 29.5168 48.4486C29.5366 48.4281 29.553 48.2518 29.553 48.0569C29.553 47.6332 29.6141 47.5438 29.9499 47.4805C30.1815 47.4366 30.2839 47.3437 30.2839 47.1773C30.2839 47.1003 30.2365 47.0543 30.0883 46.9879C29.8442 46.8784 29.7601 46.7446 29.873 46.6446C29.9161 46.6065 30.1162 46.4312 30.3177 46.2551C30.6419 45.9718 30.6908 45.9087 30.7438 45.706C30.8595 45.2643 30.9506 44.7043 30.9208 44.6196C30.8785 44.4993 30.7225 44.3317 30.6527 44.3317C30.6204 44.3317 30.5541 44.2911 30.5054 44.242C30.4461 44.1822 30.4168 44.1718 30.4168 44.2121C30.4168 44.2451 30.2843 44.4926 30.1225 44.7621C29.9606 45.0316 29.7481 45.4205 29.6504 45.6263C29.4916 45.9598 29.4434 46.0198 29.2026 46.1854C28.529 46.6483 28.1683 47.235 28.0702 48.0274C28.0243 48.3984 28.0541 48.6433 28.1451 48.6433C28.1807 48.6433 28.3148 48.5523 28.443 48.441C28.5713 48.3299 28.7112 48.2389 28.7536 48.2389C28.8225 48.2389 28.8275 48.2721 28.8005 48.5457L28.7701 48.8525L28.9178 48.9004C29.0901 48.9567 29.3208 48.9613 29.5087 48.913ZM43.342 33.4353C43.4254 33.3706 43.5825 33.1961 43.6903 33.0474L43.8867 32.777L43.775 32.6372C43.3316 32.083 43.0559 31.6691 42.8441 31.2413C42.7092 30.9689 42.5995 30.7156 42.6006 30.6784C42.603 30.5695 42.7383 30.4288 43.0044 30.2588C43.6055 29.874 43.6711 29.7125 43.6972 28.5487C43.7094 28.0013 43.6978 27.6019 43.6638 27.426C43.5919 27.0494 43.3853 26.6419 43.1115 26.3364L42.8806 26.0788L42.7072 26.1319C42.4948 26.1969 42.1717 26.5059 42.0623 26.7488C41.9469 27.0059 41.9604 27.3073 42.1157 27.919C42.2084 28.2844 42.2517 28.5637 42.2521 28.7955C42.2526 29.2003 42.2358 29.3059 42.0462 30.0947C41.8541 30.8928 41.797 31.3292 41.7983 31.9938C41.799 32.5835 41.8576 32.8709 42.0277 33.1227C42.3216 33.5573 42.9814 33.7142 43.342 33.4353ZM5.96334 16.422C6.37155 16.2024 7.45126 15.7408 8.34308 15.4045L9.10704 15.1164V14.4988C9.10704 14.1507 9.08963 13.8812 9.06628 13.8812C9.01143 13.8812 7.71159 14.4157 7.27449 14.618C7.08252 14.7066 6.90816 14.7795 6.88685 14.7795C6.86498 14.7795 6.84794 13.393 6.84794 11.6131C6.84794 9.87169 6.83311 8.44659 6.81496 8.44622C6.79643 8.44622 6.49013 8.58225 6.13363 8.74947L5.48547 9.05328L5.46657 12.7809C5.45619 14.831 5.45508 16.5237 5.46379 16.5422C5.49862 16.6153 5.68985 16.5691 5.96334 16.422ZM57.3612 14.8358C57.3536 13.9528 57.3337 12.2536 57.3167 11.0605L57.2863 8.89067L56.7104 8.64648C56.3936 8.51211 56.0797 8.40229 56.0126 8.40229H55.8908V15.8918L56.0791 15.9421C56.1827 15.9698 56.4968 16.0916 56.7769 16.2129C57.0571 16.3342 57.3063 16.435 57.3306 16.4374C57.3595 16.4399 57.3701 15.8875 57.3612 14.8358ZM54.9097 10.0596L54.916 7.96688L54.4176 7.79966C54.1437 7.70737 53.8847 7.61324 53.8426 7.59053C53.8 7.56765 53.7055 7.54882 53.6319 7.54882H53.4983L53.4933 9.44624C53.4904 10.4898 53.4911 11.369 53.4952 11.4C53.5272 11.6497 53.3073 11.1578 52.5235 9.22734C51.845 7.55602 51.5961 6.98919 51.5285 6.9604C51.3617 6.88878 50.5377 6.69516 50.4006 6.69516H50.2646V14.2404H50.3776C50.4701 14.2404 51.3361 14.4427 51.6493 14.5374C51.723 14.5595 51.7258 14.4417 51.6991 12.256C51.6797 10.6631 51.685 9.96508 51.7169 9.99609C51.7423 10.0208 52.2311 11.1921 52.8033 12.5997L53.8437 15.1584L54.3468 15.3183L54.8499 15.4781L54.8769 13.8149C54.8916 12.9009 54.9064 11.2106 54.9099 10.0596H54.9097ZM9.71277 14.9375C9.78504 14.9011 10.0411 14.8098 10.2816 14.7345C10.5221 14.6595 10.7217 14.5933 10.7252 14.5877C10.7286 14.582 10.8279 14.0971 10.9455 13.5102L11.1597 12.4432L11.363 12.3823C12.0621 12.1733 12.5279 12.072 12.5587 12.1224C12.5765 12.1515 12.6778 12.5644 12.7836 13.0397C12.8895 13.515 12.989 13.9192 13.0049 13.9379C13.0206 13.9563 13.3214 13.9035 13.6732 13.8201C14.1999 13.6953 14.3107 13.6553 14.2995 13.5936C14.2921 13.5525 14.1265 12.9688 13.9312 12.2966C13.7357 11.6242 13.2864 10.074 12.9332 8.85136C12.58 7.62874 12.2822 6.61986 12.2722 6.60989C12.2622 6.59956 12.0493 6.64459 11.7994 6.70956C11.5494 6.77453 11.2957 6.83359 11.2357 6.84024C11.1288 6.85205 11.1158 6.90152 10.5859 9.30006C10.2885 10.6463 9.88658 12.4618 9.69276 13.3345C9.34366 14.9071 9.34126 14.9214 9.43446 14.9597C9.56342 15.0126 9.56416 15.0126 9.71277 14.9375ZM11.3671 11.4655C11.3671 11.3944 11.8099 9.1919 11.8386 9.12065C11.8709 9.04055 11.9263 9.24339 12.1846 10.3894L12.3743 11.2314L12.192 11.2789C12.0008 11.3287 11.5774 11.445 11.4447 11.4843C11.4019 11.4967 11.3671 11.4884 11.3671 11.4655ZM49.3051 10.1677L49.3316 6.43178L49.0783 6.3801C48.8383 6.33021 48.5987 6.27877 48.3594 6.22579C48.1037 6.16931 47.8596 6.12372 47.8168 6.12483C47.7438 6.12668 47.7386 6.29002 47.7283 8.82497C47.7172 11.44 47.7325 13.6189 47.7616 13.6492C47.795 13.6839 49.226 13.9537 49.251 13.9297C49.2662 13.9157 49.2907 12.2224 49.3051 10.1677ZM15.6016 13.41C15.9133 13.3481 16.1742 13.2978 16.1814 13.2978C16.1886 13.2978 16.1997 12.4439 16.206 11.4003C16.2146 9.98501 16.2297 9.53133 16.2659 9.61494C16.2924 9.67677 16.5898 10.4802 16.9265 11.4003C17.2633 12.3204 17.5607 13.0729 17.587 13.0726C17.7303 13.0705 17.7171 13.11 18.6402 9.92927C18.7657 9.49718 18.8848 9.12434 18.9052 9.1009C18.9256 9.07746 18.9421 9.91118 18.9421 10.9537C18.9421 11.9959 18.9569 12.8487 18.9753 12.8485C19.0284 12.8485 20.0138 12.7182 20.1628 12.6922L20.2981 12.6682L20.2831 9.04221C20.2749 7.0477 20.2575 5.34814 20.2445 5.26545C20.2223 5.12462 20.2121 5.11669 20.0796 5.13957C19.7003 5.20547 19.0642 5.26693 18.964 5.24773C18.9019 5.23574 18.8431 5.23906 18.8331 5.25512C18.8233 5.27154 18.5437 6.16304 18.212 7.23652C17.8804 8.31 17.5876 9.25539 17.5622 9.33734C17.5363 9.41929 17.5066 9.47762 17.4962 9.46655C17.4857 9.45602 17.1983 8.63116 16.8575 7.63354C16.5166 6.6361 16.2301 5.79758 16.2205 5.77026C16.2084 5.73575 16.0417 5.75273 15.6785 5.82527C15.39 5.88285 15.0924 5.93029 15.0174 5.93103L14.8803 5.93287L14.8512 7.35483C14.835 8.13706 14.8219 9.83329 14.8219 11.1242C14.8219 13.6339 14.8104 13.4827 15.0061 13.5179C15.022 13.5207 15.2901 13.4725 15.6016 13.4109V13.41ZM46.7533 9.69062L46.7647 5.9338L46.6647 5.9122C46.2329 5.81844 45.577 5.70732 45.4569 5.70732H45.3109L45.3356 7.16712C45.3593 8.5804 45.3574 8.62673 45.2757 8.62673C45.2294 8.62673 44.8625 8.57653 44.4604 8.51507C44.0587 8.45379 43.7148 8.40321 43.6965 8.40284C43.6779 8.40284 43.6631 7.73579 43.6631 6.92108V5.43988L43.5636 5.41902C43.3661 5.37768 42.442 5.25807 42.3231 5.25826H42.2013V12.7872L42.8991 12.8793C43.2827 12.9299 43.6088 12.9646 43.6236 12.9563C43.6385 12.948 43.6407 12.1694 43.6285 11.2266L43.6062 9.51195L43.7122 9.53705C43.7706 9.55071 44.1421 9.60756 44.5382 9.66312L45.2581 9.76408V13.2529L45.4021 13.2553C45.4814 13.2571 45.7949 13.3046 46.0999 13.3614C46.4045 13.4186 46.6736 13.4611 46.698 13.4565C46.7271 13.4508 46.7462 12.1504 46.7536 9.69099V9.69062H46.7533ZM39.9114 12.6466C40.5844 12.469 41.0221 12.0425 41.2315 11.3608C41.3049 11.1218 41.3149 10.937 41.3149 9.83532V8.5817H39.2772V8.79949C39.2772 8.91928 39.2642 9.17215 39.2487 9.36097L39.2201 9.70465H40.0834L40.068 10.303C40.0536 10.8623 40.0449 10.9132 39.9346 11.0819C39.6072 11.5832 38.9301 11.4946 38.5347 10.899C38.2484 10.4675 38.236 10.3669 38.236 8.46966C38.236 6.79908 38.2382 6.75866 38.3331 6.57907C38.4511 6.35555 38.7037 6.12262 38.8682 6.08607C38.9348 6.0713 39.0126 6.05192 39.0413 6.04325C39.1458 6.01113 39.4165 6.12022 39.569 6.25588C39.7612 6.42698 39.8903 6.67486 39.9266 6.94249L39.9539 7.14479H40.6124C41.3647 7.14479 41.311 7.18595 41.2072 6.69018C40.9934 5.6669 40.1659 4.98896 39.1304 4.98896C38.1084 4.98896 37.2705 5.63442 36.9658 6.65622C36.9214 6.80517 36.9073 7.28322 36.908 8.62692C36.9088 10.5867 36.9334 10.8213 37.1958 11.3531C37.3637 11.6938 37.7276 12.1032 38.05 12.3145C38.2894 12.4714 38.7052 12.6383 38.9672 12.6827C39.2244 12.7265 39.675 12.7091 39.9116 12.6466H39.9114ZM23.151 12.4011C24.6686 12.2719 24.7674 12.2438 25.152 11.8269C25.8602 11.0594 25.9588 9.46968 25.3373 8.83346C25.1984 8.69096 24.9067 8.53943 24.7679 8.53795C24.7105 8.53795 24.7474 8.50288 24.8724 8.43994C25.5413 8.10439 25.7394 6.70347 25.2623 5.68481C25.0768 5.28871 24.8224 5.0196 24.4872 4.86401L24.2378 4.74809L23.5059 4.8031C22.7569 4.85939 21.3202 4.99284 21.3025 5.00779C21.297 5.01222 21.279 6.71085 21.2618 8.78214L21.2312 12.548L21.6481 12.5207C21.8779 12.5056 22.5542 12.4517 23.151 12.4011ZM22.564 11.3403C22.5455 11.3217 22.5307 10.8379 22.5307 10.2652V9.22383L23.1842 9.19799L23.8376 9.1727L23.9836 9.31464C24.0638 9.39272 24.1833 9.56788 24.2495 9.70409C24.3529 9.91746 24.3693 10.0073 24.3693 10.3556C24.3693 10.7172 24.3564 10.7826 24.2458 10.973C24.0579 11.2972 23.945 11.3392 23.2174 11.3581C22.8764 11.3669 22.5824 11.3581 22.564 11.3403ZM22.7845 8.05455L22.5292 8.03831L22.5411 7.06376L22.5529 6.08921L23.157 6.07684L23.7608 6.06447L23.9656 6.29519C24.4468 6.83766 24.3927 7.71531 23.8615 7.98681C23.6595 8.08999 23.5001 8.09996 22.7847 8.05455H22.7845ZM29.1889 12.2433C30.1131 12.0449 30.7488 11.3824 30.8572 10.5051C30.8795 10.3243 30.8932 9.3678 30.8876 8.37959C30.8761 6.39818 30.8684 6.33358 30.5799 5.77469C30.4111 5.448 29.9882 5.00945 29.6823 4.84389C29.3888 4.68515 29.0004 4.57441 28.6539 4.55078C27.8794 4.49799 27.0298 5.07922 26.6031 5.95428C26.2996 6.5763 26.2838 6.73356 26.3196 8.78288C26.3535 10.7087 26.3713 10.871 26.5955 11.2887C27.005 12.0519 28.1384 12.469 29.1889 12.2433ZM28.2407 11.0799C27.9965 10.9913 27.8145 10.8418 27.6904 10.6268L27.5779 10.4319L27.5686 8.55235L27.5594 6.67302L27.6817 6.42052C27.9907 5.78226 28.7267 5.66653 29.2578 6.17282C29.4596 6.36478 29.5765 6.61174 29.6208 6.93806C29.6412 7.08868 29.6639 7.91926 29.6714 8.78381C29.6847 10.3444 29.6841 10.3573 29.5835 10.5655C29.3578 11.0317 28.7501 11.2645 28.2407 11.0799ZM36.2202 12.2077C36.2202 12.1766 35.9311 11.419 35.5778 10.5238C35.2244 9.6286 34.9352 8.87849 34.9352 8.85653C34.9352 8.83456 35.0091 8.80245 35.0995 8.78528C35.756 8.66033 36.1298 8.00896 36.1305 6.98753C36.1313 6.01944 35.7299 5.1381 35.1244 4.77818C34.8974 4.64344 34.537 4.60985 32.8199 4.56223L31.7455 4.53251V12.0748L31.8893 12.0969C31.9686 12.1089 32.2784 12.1226 32.5781 12.1264L33.1228 12.1338L33.1165 10.5262L33.11 8.91854L33.4817 8.90562L33.8534 8.8927L34.2498 10.1856C34.4679 10.8968 34.6978 11.6401 34.7608 11.8376L34.8755 12.1971L35.3591 12.2097C35.6258 12.2167 35.8733 12.2294 35.91 12.2381C36.0692 12.2758 36.2202 12.2608 36.2202 12.2077ZM33.1045 7.87847C33.0882 7.86186 33.0748 7.38935 33.0748 6.82824V5.80847L33.6207 5.77654C34.2248 5.74129 34.4008 5.78152 34.6359 6.00984C35.021 6.38379 34.9995 7.41519 34.5989 7.77179L34.4451 7.90837H33.7899C33.4289 7.90837 33.1208 7.8949 33.1043 7.87847H33.1045Z" fill="#9F6B08"/>
</svg>
